<?xml version="1.0" encoding="UTF-8"?>
<svg id="Layer_1" data-name="Layer 1" xmlns="http://www.w3.org/2000/svg" viewBox="0 0 608.94 711">
  <defs>
    <style>
      .cls-1 {
        fill: #f88430;
      }

      .cls-1, .cls-2, .cls-3, .cls-4, .cls-5, .cls-6, .cls-7, .cls-8 {
        stroke-width: 0px;
      }

      .cls-2 {
        fill: #603d21;
      }

      .cls-3 {
        fill: #7c532c;
      }

      .cls-4 {
        fill: #393c39;
      }

      .cls-5 {
        fill: #c9313b;
      }

      .cls-6 {
        fill: #d63e49;
      }

      .cls-7 {
        fill: #996335;
      }

      .cls-8 {
        fill: #fbfc6f;
      }
    </style>
  </defs>
  <polygon class="cls-2" points="559.9 580.82 538.24 635.56 608.94 635.56 559.9 580.82"/>
  <path class="cls-3" d="m538.24,635.56h70.7l-43.33,61.58s-75.83,6.27-137.98,10.26c-39.94,2.57-190,11.04-300.59-12.45-33.38-7.09-63.99-23.71-88.12-47.84L0,608.19s155.09,39.91,538.24,27.37Z"/>
  <path class="cls-7" d="m538.24,635.56l21.67-54.74h-180.74C76.4,569.42,0,608.19,0,608.19c0,0,155.09,39.91,538.24,27.37Z"/>
  <rect class="cls-4" x="279.8" y=".1" width="16.39" height="646.78" transform="translate(9.53 -8.24) rotate(1.67)"/>
  <path class="cls-8" d="m269.4,232.24l3.14-57.38-34.19,55.14c8.85,1.12,19.12,1.91,31.05,2.25Z"/>
  <path class="cls-6" d="m269.4,232.24c-11.92-.33-22.2-1.12-31.05-2.25l-33.77,54.47c11.85,3.62,30.49,7.03,61.5,8.38l3.32-60.6Z"/>
  <path class="cls-8" d="m204.58,284.46l-68.26,110.08c23.94,9.78,63.43,16.99,123.96,4.42l5.81-106.12c-31.02-1.36-49.66-4.76-61.5-8.38Z"/>
  <path class="cls-1" d="m260.28,398.96c-60.53,12.58-100.02,5.37-123.96-4.42l-52.45,84.59c30.25,11.96,91.23,27.83,171.64,6.93l4.77-87.1Z"/>
  <path class="cls-8" d="m305.27,11.75l-3.21,110.36c18.57,2.67,47.85,4.72,79.63-1.34-42.83-69.02-76.41-109.01-76.41-109.01Z"/>
  <path class="cls-6" d="m381.68,120.76c-31.77,6.06-61.05,4.02-79.62,1.34l-1.81,62.1c18.85,5.07,63.03,13.29,118.06-.69-12.57-22.94-24.94-43.92-36.63-62.75Z"/>
  <path class="cls-8" d="m418.3,183.52c-55.03,13.98-99.2,5.76-118.05.69l-3.19,109.7c26.79,4.08,127.35,17.47,173.73-3.48-16.98-39.03-34.92-74.86-52.49-106.92Z"/>
  <path class="cls-1" d="m470.78,290.43c-46.37,20.95-146.93,7.56-173.73,3.48l-2.99,102.74s106.24,45.99,215.69-4.37c-13.55-41.01-40.96-106.43-38.97-101.85Z"/>
  <g>
    <path class="cls-6" d="m503.9,375.04c-.15-.42-.29-.84-.43-1.26h0c.15.42.3.84.44,1.26Z"/>
    <path class="cls-6" d="m506.95,383.92c.07.22.15.44.23.66-.07-.22-.15-.44-.23-.66Z"/>
    <path class="cls-6" d="m509.74,392.29c-109.44,50.35-215.67,4.37-215.67,4.37l-2.02,69.53c16.36,5.11,149.02,44.14,238.31-3.85-6.19-24.01-13.13-47.38-20.62-70.05Z"/>
  </g>
  <path class="cls-5" d="m530.36,462.33c-89.3,47.99-221.96,8.96-238.31,3.85l-1.67,57.54h0c129.58,56.94,254.71,4.64,254.71,4.64-4.22-22.48-9.18-44.51-14.72-66.03Z"/>
  <path class="cls-6" d="m83.87,479.13l-43.96,70.9c116.31,35.35,212.1,0,212.1,0l3.5-63.97c-80.41,20.9-141.39,5.03-171.64-6.93Z"/>
</svg>